#!OML:ASF G:\JayActor3\Patient Classification 1\Patient 1\Session 6\male.ASF
:FULLY-SPECIFIED
:DEGREES
1940
root 1.45346 15.1295 -16.9662 25.3395 -57.5701 -4.72904
lowerback 39.447 -1.66056 3.20913
upperback 9.12965 -1.46819 0.437512
thorax -9.02383 -0.996842 -0.561016
lowerneck 10.3832 3.18511 0.378873
upperneck -24.8502 3.24243 -4.6794
head -9.43939 1.90632 -2.02547
rclavicle 4.01545e-014 1.8487e-014
rhumerus -39.2015 13.9064 -87.2702
rradius 63.1857
rwrist -8.33684
rhand -28.1258 -4.61885
rfingers 7.12502
rthumb -1.50738 -34.5933
lclavicle 4.01545e-014 1.8487e-014
lhumerus -38.8858 -7.40968 81.137
lradius 62.9538
lwrist 41.4889
lhand -30.5703 5.89108
lfingers 7.12502
lthumb -3.86823 35.8357
rfemur -71.3436 1.02537 17.1759
rtibia 71.9741
rfoot -17.3211 -11.2657
rtoes -17.5419
lfemur -64.7913 10.9903 -29.9582
ltibia 56.463
lfoot -14.9084 3.18941
ltoes -1.18228
1941
root 1.39834 15.1237 -16.9867 24.8994 -56.7916 -4.3419
lowerback 39.5544 -1.58843 3.17411
upperback 9.21455 -1.39124 0.414734
thorax -8.96166 -0.95828 -0.598141
lowerneck 11.1474 2.96848 0.441544
upperneck -25.37 3.03134 -4.28808
head -9.78283 1.76258 -1.90784
rclavicle 1.07344e-014 4.7112e-014
rhumerus -39.2481 13.2422 -87.0561
rradius 63.962
rwrist -8.50872
rhand -28.3506 -4.5633
rfingers 7.12502
rthumb -1.7245 -34.5361
lclavicle 1.07344e-014 4.7112e-014
lhumerus -38.8101 -7.49249 81.0877
lradius 63.1563
lwrist 41.3881
lhand -30.4676 5.83318
lfingers 7.12502
lthumb -3.76898 35.7796
rfemur -70.7958 1.47071 16.7852
rtibia 69.864
rfoot -17.794 -10.3011
rtoes -18.2896
lfemur -64.6349 10.72 -29.9035
ltibia 56.5965
lfoot -14.9083 2.82626
ltoes -1.2956
1942
root 1.34307 15.1173 -17.0067 24.5293 -55.9538 -3.99399
lowerback 39.6093 -1.54779 3.20783
upperback 9.2944 -1.32291 0.418823
thorax -8.88786 -0.923764 -0.639732
lowerneck 11.766 2.75574 0.540934
upperneck -25.7186 2.83365 -3.93993
head -10.0375 1.6243 -1.80189
rclavicle -2.32578e-014 2.40529e-014
rhumerus -39.3313 12.5518 -86.8184
rradius 64.7606
rwrist -8.70362
rhand -28.5492 -4.48556
rfingers 7.12502
rthumb -1.91637 -34.4567
lclavicle -2.32578e-014 2.40529e-014
lhumerus -38.7287 -7.55931 81.0734
lradius 63.2554
lwrist 41.2987
lhand -30.3785 5.79972
lfingers 7.12502
lthumb -3.68297 35.7476
rfemur -70.1823 1.87131 16.4223
rtibia 67.7218
rfoot -18.1368 -9.59239
rtoes -18.8988
lfemur -64.5155 10.3704 -29.7978
ltibia 56.7342
lfoot -14.9068 2.46745
ltoes -1.34247
1943
root 1.28647 15.1114 -17.0244 24.2401 -55.0983 -3.73186
lowerback 39.6349 -1.53406 3.28852
upperback 9.37344 -1.26631 0.453132
thorax -8.80508 -0.895196 -0.669132
lowerneck 12.2101 2.56959 0.62574
upperneck -25.8949 2.66994 -3.62648
head -10.1959 1.50606 -1.69958
rclavicle -3.83654e-014 4.07509e-014
rhumerus -39.4253 11.9262 -86.5644
rradius 65.5284
rwrist -8.89309
rhand -28.7033 -4.37841
rfingers 7.12502
rthumb -2.06513 -34.3482
lclavicle -3.83654e-014 4.07509e-014
lhumerus -38.6709 -7.56727 81.0998
lradius 63.2631
lwrist 41.2223
lhand -30.3191 5.77203
lfingers 7.12502
lthumb -3.62559 35.7209
rfemur -69.4864 2.24597 16.1246
rtibia 65.6431
rfoot -18.1082 -9.11331
rtoes -19.3356
lfemur -64.4001 9.99807 -29.6327
ltibia 56.8745
lfoot -14.9165 2.12327
ltoes -1.34674
1944
root 1.22915 15.1064 -17.04 24.0454 -54.2324 -3.56128
lowerback 39.6229 -1.54789 3.41411
upperback 9.44641 -1.2234 0.514245
thorax -8.71674 -0.873269 -0.688199
lowerneck 12.4863 2.41252 0.688297
upperneck -25.9253 2.53918 -3.34473
head -10.2678 1.40845 -1.60087
rclavicle 7.53394e-014 -2.90226e-014
rhumerus -39.5175 11.3962 -86.31
rradius 66.2242
rwrist -9.04873
rhand -28.8211 -4.26345
rfingers 7.12502
rthumb -2.17892 -34.2321
lclavicle 7.53394e-014 -2.90226e-014
lhumerus -38.6488 -7.53616 81.1658
lradius 63.1774
lwrist 41.1737
lhand -30.3102 5.74134
lfingers 7.12502
lthumb -3.61701 35.6904
rfemur -68.7705 2.59081 15.8959
rtibia 63.81
rfoot -17.8372 -8.79724
rtoes -19.3807
lfemur -64.3039 9.62479 -29.419
ltibia 57.0114
lfoot -14.9311 1.79046
ltoes -1.34489
1945
root 1.1718 15.1034 -17.0545 23.9163 -53.3648 -3.45561
lowerback 39.5886 -1.58913 3.53479
upperback 9.51202 -1.21155 0.613178
thorax -8.62943 -0.866073 -0.652103
lowerneck 12.6141 2.30331 0.675975
upperneck -25.8554 2.45503 -3.08544
head -10.2738 1.34221 -1.49787
rclavicle -6.36111e-015 -1.07344e-014
rhumerus -39.5851 11.0483 -86.0557
rradius 66.8189
rwrist -9.16253
rhand -28.9087 -4.15043
rfingers 7.12502
rthumb -2.26356 -34.1182
lclavicle -6.36111e-015 -1.07344e-014
lhumerus -38.6678 -7.4157 81.2821
lradius 62.9997
lwrist 41.1507
lhand -30.3499 5.69954
lfingers 7.12502
lthumb -3.65533 35.6479
rfemur -68.0936 2.90144 15.7244
rtibia 62.3991
rfoot -17.4723 -8.62955
rtoes -18.8398
lfemur -64.2202 9.26831 -29.1773
ltibia 57.1381
lfoot -14.9477 1.45167
ltoes -1.33325
1946
root 1.11501 15.1021 -17.0692 23.8644 -52.5049 -3.40498
lowerback 39.5158 -1.64146 3.67598
upperback 9.56035 -1.20461 0.718115
thorax -8.54916 -0.860908 -0.618781
lowerneck 12.6344 2.2059 0.695902
upperneck -25.7257 2.38212 -2.87623
head -10.2351 1.28365 -1.41641
rclavicle 4.50247e-014 -3.61788e-014
rhumerus -39.6427 10.7822 -85.8383
rradius 67.2935
rwrist -9.21122
rhand -28.9924 -4.0474
rfingers 7.12502
rthumb -2.3444 -34.0143
lclavicle 4.50247e-014 -3.61788e-014
lhumerus -38.7175 -7.33377 81.428
lradius 62.7351
lwrist 41.1684
lhand -30.4269 5.66054
lfingers 7.12502
lthumb -3.72969 35.6076
rfemur -67.544 3.17673 15.6035
rtibia 61.5369
rfoot -17.1526 -8.59032
rtoes -17.4902
lfemur -64.1785 8.93474 -28.9186
ltibia 57.2553
lfoot -14.9593 1.1001
ltoes -1.26867
